<?xml version="1.0" standalone="no"?><!DOCTYPE svg PUBLIC "-//W3C//DTD SVG 1.1//EN" "http://www.w3.org/Graphics/SVG/1.1/DTD/svg11.dtd"><svg t="1760756612277" class="icon" viewBox="0 0 1256 1024" version="1.1" xmlns="http://www.w3.org/2000/svg" p-id="5459" xmlns:xlink="http://www.w3.org/1999/xlink" width="245.3125" height="200"><path d="M1180.496521 465.777303l-527.989516 213.996984L161.230605 460.193559a23.2656 23.2656 0 1 0-18.984729 42.482985l509.377036 227.677157 575.404808-233.21437V277.605134c0-20.380665-4.885776-40.482143-14.192016-58.629311-67.935551-132.520855-126.89058-199.758438-184.72886-199.758438-58.629311 0-124.052177 70.262111-204.458089 210.227958H441.813735C353.264863 89.619089 281.74641 19.217385 220.139103 19.217385c-61.607308 0-120.748462 68.168207-184.356611 201.480092C27.54647 237.960552 23.2656 256.852219 23.2656 276.023073v618.16698a128.426109 128.426109 0 0 0 128.426109 128.47264h896.749269c113.30347 9.678489 177.981836-34.1539 178.586742-128.333047 0.465312-78.916914 0.465312-173.328717 0-283.28194a23.2656 23.2656 0 0 0-46.531199 0.232656c0.465312 109.767099 0.465312 204.039308 0 282.770097-0.418781 63.515087-39.272332 89.805214-130.101233 82.174098l-898.657048-0.093063a81.89491 81.89491 0 0 1-81.941441-81.89491V275.976542c0-12.237705 2.745341-24.289286 8.003366-35.270649 56.116626-117.630871 105.858478-174.957309 142.338938-174.957309 40.389081 0 105.998071 66.074303 189.102793 199.200064l6.840086 10.981363h434.694462l6.653961-11.818925c74.868699-132.520855 134.707821-198.409033 170.676439-198.409033 32.944089 0 83.383909 57.559093 143.316093 174.491997 5.955993 11.586269 9.073584 24.382348 9.073584 37.364553v188.172169z" fill="#e6e6e6" p-id="5460"></path><path d="M234.703368 178.167961l-29.407718 74.356856a23.2656 23.2656 0 0 0 23.637849 31.734278l29.779968-2.605747a23.2656 23.2656 0 0 0 17.821449-35.363711l-41.878079-68.121676zM1026.710908 181.192489l-29.407718 74.356856a23.2656 23.2656 0 0 0 23.730911 31.734278l29.779968-2.605747a23.2656 23.2656 0 0 0 17.774918-35.363711l-41.878079-68.121676z" fill="#e6e6e6" p-id="5461"></path></svg>